<svg width="18" height="15" viewBox="0 0 18 15" fill="none" xmlns="http://www.w3.org/2000/svg">
<path d="M0.321023 13V2.09091H4.0071C4.85938 2.09091 5.55895 2.23651 6.10582 2.5277C6.6527 2.81534 7.05753 3.21129 7.32031 3.71555C7.5831 4.21982 7.71449 4.79332 7.71449 5.43608C7.71449 6.07884 7.5831 6.64879 7.32031 7.14595C7.05753 7.64311 6.65447 8.03374 6.11115 8.31783C5.56783 8.59837 4.87358 8.73864 4.02841 8.73864H1.04545V7.54545H3.9858C4.56818 7.54545 5.03693 7.46023 5.39205 7.28977C5.75071 7.11932 6.00994 6.87784 6.16974 6.56534C6.3331 6.24929 6.41477 5.87287 6.41477 5.43608C6.41477 4.99929 6.3331 4.61754 6.16974 4.29084C6.00639 3.96413 5.74538 3.712 5.38672 3.53445C5.02805 3.35334 4.55398 3.26278 3.96449 3.26278H1.64205V13H0.321023ZM5.45597 8.09943L8.14062 13H6.60653L3.96449 8.09943H5.45597ZM12.9413 14.3636V0.727272H13.8149V14.3636H12.9413ZM15.8817 4.81818C15.8177 4.27841 15.5585 3.85938 15.104 3.56108C14.6494 3.26278 14.0919 3.11364 13.4314 3.11364C12.9484 3.11364 12.5258 3.19176 12.1636 3.34801C11.805 3.50426 11.5244 3.7191 11.322 3.99254C11.1231 4.26598 11.0237 4.5767 11.0237 4.92472C11.0237 5.21591 11.093 5.46626 11.2314 5.67578C11.3735 5.88175 11.5546 6.05398 11.7748 6.19247C11.9949 6.32741 12.2258 6.43928 12.4672 6.52805C12.7087 6.61328 12.9307 6.68253 13.1331 6.7358L14.241 7.03409C14.5251 7.10866 14.8412 7.21165 15.1892 7.34304C15.5407 7.47443 15.8763 7.65376 16.1959 7.88104C16.5191 8.10476 16.7854 8.3924 16.9949 8.74396C17.2045 9.09553 17.3092 9.52699 17.3092 10.0384C17.3092 10.6278 17.1547 11.1605 16.8458 11.6364C16.5404 12.1122 16.093 12.4904 15.5035 12.771C14.9175 13.0515 14.2055 13.1918 13.3675 13.1918C12.5862 13.1918 11.9097 13.0657 11.338 12.8136C10.7698 12.5614 10.3224 12.2099 9.99565 11.7589C9.6725 11.3079 9.48961 10.7841 9.447 10.1875H10.8106C10.8461 10.5994 10.9846 10.9403 11.2261 11.2102C11.4711 11.4766 11.7801 11.6754 12.153 11.8068C12.5294 11.9347 12.9342 11.9986 13.3675 11.9986C13.8717 11.9986 14.3245 11.9169 14.7258 11.7536C15.127 11.5866 15.4449 11.3558 15.6792 11.0611C15.9136 10.7628 16.0308 10.4148 16.0308 10.017C16.0308 9.65483 15.9296 9.36009 15.7272 9.13281C15.5248 8.90554 15.2584 8.72088 14.9282 8.57884C14.5979 8.43679 14.241 8.3125 13.8575 8.20597L12.5152 7.82244C11.6629 7.57741 10.9882 7.22763 10.491 6.77308C9.99387 6.31854 9.74529 5.72372 9.74529 4.98864C9.74529 4.37784 9.91042 3.84517 10.2407 3.39062C10.5745 2.93253 11.0219 2.57741 11.583 2.32528C12.1476 2.0696 12.778 1.94176 13.474 1.94176C14.1771 1.94176 14.8021 2.06783 15.349 2.31996C15.8959 2.56854 16.3291 2.90945 16.6487 3.34268C16.9719 3.77592 17.1423 4.26776 17.1601 4.81818H15.8817Z" fill="#AAAAAA"/>
</svg>
