<svg width="24" height="17" viewBox="0 0 24 17" fill="none" xmlns="http://www.w3.org/2000/svg">
<path d="M5.30769 10.028L9.69231 14.3826C10 14.6882 10.1474 15.0447 10.1346 15.4522C10.1218 15.8596 9.97436 16.2162 9.69231 16.5218C9.38462 16.8273 9.01923 16.9865 8.59615 16.9992C8.17308 17.012 7.80769 16.8655 7.5 16.5599L0.461538 9.56957C0.153846 9.26398 0 8.90745 0 8.5C0 8.09255 0.153846 7.73602 0.461538 7.43043L7.5 0.44005C7.80769 0.13446 8.17308 -0.011969 8.59615 0.000763976C9.01923 0.0134969 9.38462 0.172659 9.69231 0.478249C9.97436 0.78384 10.1218 1.14036 10.1346 1.54782C10.1474 1.95527 10 2.31179 9.69231 2.61738L5.30769 6.97205H22.4615C22.8974 6.97205 23.2628 7.11848 23.5577 7.41133C23.8526 7.70419 24 8.06708 24 8.5C24 8.93292 23.8526 9.29581 23.5577 9.58867C23.2628 9.88152 22.8974 10.028 22.4615 10.028H5.30769Z" fill="#9E9E9E" fill-opacity="0.6"/>
</svg>
